<?xml version="1.0" encoding="UTF-8" standalone="no"?>
<!-- Created with Inkscape (http://www.inkscape.org/) -->

<svg
   xmlns:dc="http://purl.org/dc/elements/1.1/"
   xmlns:cc="http://creativecommons.org/ns#"
   xmlns:rdf="http://www.w3.org/1999/02/22-rdf-syntax-ns#"
   xmlns:svg="http://www.w3.org/2000/svg"
   xmlns="http://www.w3.org/2000/svg"
   xmlns:sodipodi="http://sodipodi.sourceforge.net/DTD/sodipodi-0.dtd"
   xmlns:inkscape="http://www.inkscape.org/namespaces/inkscape"
   version="1.0"
   width="207.01814"
   height="162.16554"
   id="svg2"
   inkscape:version="0.48.5 r10040"
   sodipodi:docname="Gnupg_logo_shirt.svg">
  <metadata
     id="metadata21">
    <rdf:RDF>
      <cc:Work
         rdf:about="">
        <dc:format>image/svg+xml</dc:format>
        <dc:type
           rdf:resource="http://purl.org/dc/dcmitype/StillImage" />
        <dc:title></dc:title>
      </cc:Work>
    </rdf:RDF>
  </metadata>
  <sodipodi:namedview
     pagecolor="#ffffff"
     bordercolor="#666666"
     borderopacity="1"
     objecttolerance="10"
     gridtolerance="10"
     guidetolerance="10"
     inkscape:pageopacity="0"
     inkscape:pageshadow="2"
     inkscape:window-width="1600"
     inkscape:window-height="857"
     id="namedview19"
     showgrid="false"
     inkscape:zoom="1.047619"
     inkscape:cx="220.14115"
     inkscape:cy="68.196421"
     inkscape:window-x="0"
     inkscape:window-y="25"
     inkscape:window-maximized="1"
     inkscape:current-layer="svg2"
     fit-margin-top="0"
     fit-margin-left="0"
     fit-margin-right="0"
     fit-margin-bottom="0" />
  <defs
     id="defs4" />
  <g
     id="g2400"
     transform="translate(-81.38442,-495.94245)">
    <text
       style="font-size:40px;font-style:normal;font-weight:normal;fill:#000000;fill-opacity:1;stroke:none;font-family:Bitstream Vera Sans"
       xml:space="preserve"
       id="text2396"
       y="502.58667"
       x="351.53308"><tspan
         id="tspan2398"
         y="502.58667"
         x="351.53308" /></text>
  </g>
  <text
     style="font-size:40px;font-style:normal;font-weight:normal;fill:#000000;fill-opacity:1;stroke:none;font-family:Bitstream Vera Sans"
     xml:space="preserve"
     id="text2404"
     y="-11.285994"
     x="274.4418"><tspan
       id="tspan2406"
       y="-11.285994"
       x="274.4418" /></text>
  <g
     id="g3027"
     transform="translate(65.40071,-0.93996)">
    <g
       transform="translate(-256.78433,-537.01708)"
       id="g3221">
      <path
         inkscape:connector-curvature="0"
         style="fill:#0093dd;fill-opacity:1;fill-rule:evenodd;stroke:none"
         id="path2408"
         d="m 294.21875,537.95704 c -22.05596,0 -30.5625,21.53887 -30.5625,24.21875 0,0 0,23 0,23 l -5.5625,0 0,24.25 c 0,0 11.46707,-13.73008 35.09375,-13.90625 14.81755,-0.12521 32.84375,-10.09375 32.84375,-10.09375 0,0 0,-23.00001 0,-23 0,-2.41629 -7.89409,-24.46874 -31.8125,-24.46875 z m 13.625,7.4375 c 0,0 -13.55277,-3.70369 -24.875,2.78125 -8.27991,4.74242 -13.875,15.15624 -13.875,15.15625 0,0 4.16933,-13.29082 12.7251,-17.43369 8.53635,-4.06679 17.34161,-3.75819 26.0249,-0.50381 z m -12.625,7.3125 c 13.4444,0 16.53125,12.39646 16.53125,14.65625 0,0 0,17.93751 0,17.9375 l -33.84375,0 c 0,0 -0.25,-18.93751 -0.25,-18.9375 0,-2.03592 4.18737,-13.65626 17.5625,-13.65625 z" />
      <path
         inkscape:connector-curvature="0"
         style="fill:#0093dd;fill-opacity:1;fill-rule:evenodd;stroke:none"
         id="path3186"
         d="m 331.69162,591.88233 c 0,0 0,44.28571 0,44.28571 l -63.03571,0 c 8.26247,-4.76039 17.24817,-3.57142 26.42857,-3.57142 0,0 11.39336,0.0891 27.5,-13.03572 0,0 -15.96262,7.19018 -39.28571,2.5 0,0 33.63479,1.34448 47.67857,-21.52421 0,0 -13.25705,9.1135 -37.41072,9.1135 0,0 15.5899,1.98038 38.125,-17.76786 z" />
    </g>
  </g>
  <g
     id="g3020"
     transform="translate(-83.76335,63.01459)">
    <path
       inkscape:connector-curvature="0"
       style="fill:#0093dd;fill-opacity:1;fill-rule:evenodd;stroke:none"
       id="path3208"
       d="m 116.2145,71.37177 8.08122,0 0,23.99112 c 0,0 -9.59997,3.78807 -16.54125,3.78807 -5.72973,0 -23.99112,-3.48793 -23.99112,-25.25381 0,-18.98185 15.84923,-26.26397 23.86485,-26.26397 8.39313,0 14.89975,3.53554 14.89975,3.53554 l 0,5.80837 c 0,0 -7.00754,-4.29314 -14.64721,-4.29314 -8.07668,0 -15.15229,4.42212 -15.15229,21.71828 0,12.80439 7.27151,20.96066 14.89975,20.96066 6.96193,0 8.83884,-2.52538 8.83884,-2.52538 L 116.2145,71.37177 z" />
    <path
       inkscape:connector-curvature="0"
       style="fill:#0093dd;fill-opacity:1;fill-rule:evenodd;stroke:none"
       id="path3210"
       d="m 132.67967,98.97239 8.21457,0 0,-27.5 c 0,0 1.49709,-6.07143 8.03572,-6.07143 6.80648,0 7.85714,4.64285 7.85714,4.64285 l 0,29.10715 7.85714,0 0,-30.71429 c 0,0 -2.86776,-8.37119 -12.14285,-8.37119 -9.14882,0 -10.92305,4.46729 -11.78572,5.51405 0,0 0,-4.64286 0,-4.64286 l -8.036,0 0,38.03572 z" />
    <path
       inkscape:connector-curvature="0"
       style="fill:#0093dd;fill-opacity:1;fill-rule:evenodd;stroke:none"
       id="path3212"
       d="m 205.68538,60.24405 -8.21457,0 0,27.5 c 0,0 -1.49709,6.07143 -8.03572,6.07143 -6.80648,0 -7.85714,-4.64285 -7.85714,-4.64285 l 0,-29.10715 -7.85714,0 0,30.71429 c 0,0 2.86776,8.37119 12.14285,8.37119 9.14882,0 10.92305,-4.46729 11.78572,-5.51405 0,0 0,4.64286 0,4.64286 l 8.036,0 0,-38.03572 z" />
    <path
       inkscape:connector-curvature="0"
       style="fill:#0093dd;fill-opacity:1;fill-rule:evenodd;stroke:none"
       id="path3214"
       d="m 214.80942,50.40096 0,48.75 8.9375,0 0,-20.53125 c 1e-5,-1e-5 11.78125,0 11.78125,0 2.0904,-1e-5 11.4375,-4.69903 11.4375,-13.9375 0,-10.13133 -8.98763,-14.28125 -11.4375,-14.28125 -10e-6,-10e-6 -20.71875,0 -20.71875,0 z m 8.9375,3.75 c 0,0 7.25001,0 7.25,0 1.88665,0 8.12501,2.24974 8.125,10.53125 0,7.89649 -6.85864,10 -8.6875,10 0,0 -6.68749,0 -6.6875,0 l 0,-20.53125 z" />
    <path
       inkscape:connector-curvature="0"
       style="fill:#0093dd;fill-opacity:1;fill-rule:evenodd;stroke:none"
       id="path3219"
       d="m 282.70027,71.37177 8.08122,0 0,23.99112 c 0,0 -9.59997,3.78807 -16.54125,3.78807 -5.72973,0 -23.99112,-3.48793 -23.99112,-25.25381 0,-18.98185 15.84923,-26.26397 23.86485,-26.26397 8.39313,0 14.89975,3.53554 14.89975,3.53554 l 0,5.80837 c 0,0 -7.00754,-4.29314 -14.64721,-4.29314 -8.07668,0 -15.15229,4.42212 -15.15229,21.71828 0,12.80439 7.27151,20.96066 14.89975,20.96066 6.96193,0 8.83884,-2.52538 8.83884,-2.52538 l -0.25254,-21.46574 z" />
  </g>
</svg>
