<?xml version="1.0" encoding="UTF-8" standalone="no"?>
<!-- Created with Inkscape (http://www.inkscape.org/) -->

<svg
   xmlns:dc="http://purl.org/dc/elements/1.1/"
   xmlns:cc="http://creativecommons.org/ns#"
   xmlns:rdf="http://www.w3.org/1999/02/22-rdf-syntax-ns#"
   xmlns:svg="http://www.w3.org/2000/svg"
   xmlns="http://www.w3.org/2000/svg"
   xmlns:xlink="http://www.w3.org/1999/xlink"
   xmlns:sodipodi="http://sodipodi.sourceforge.net/DTD/sodipodi-0.dtd"
   xmlns:inkscape="http://www.inkscape.org/namespaces/inkscape"
   width="744.09448819"
   height="1052.3622047"
   id="svg2"
   version="1.1"
   inkscape:version="0.48.5 r10040"
   sodipodi:docname="New document 1">
  <defs
     id="defs4">
    <linearGradient
       id="linearGradient5212">
      <stop
         style="stop-color:#e4e50d;stop-opacity:1;"
         offset="0"
         id="stop5214" />
      <stop
         style="stop-color:#ff8c00;stop-opacity:1;"
         offset="1"
         id="stop5216" />
    </linearGradient>
    <linearGradient
       inkscape:collect="always"
       xlink:href="#linearGradient5212"
       id="linearGradient5218"
       x1="-94.790024"
       y1="498.08389"
       x2="700.21063"
       y2="498.08389"
       gradientUnits="userSpaceOnUse"
       gradientTransform="translate(48.571417,-25.714287)" />
  </defs>
  <sodipodi:namedview
     id="base"
     pagecolor="#ffffff"
     bordercolor="#666666"
     borderopacity="1.0"
     inkscape:pageopacity="0.0"
     inkscape:pageshadow="2"
     inkscape:zoom="0.35"
     inkscape:cx="-86.428571"
     inkscape:cy="514.28571"
     inkscape:document-units="px"
     inkscape:current-layer="layer1"
     showgrid="false"
     inkscape:window-width="1600"
     inkscape:window-height="857"
     inkscape:window-x="0"
     inkscape:window-y="25"
     inkscape:window-maximized="1" />
  <metadata
     id="metadata7">
    <rdf:RDF>
      <cc:Work
         rdf:about="">
        <dc:format>image/svg+xml</dc:format>
        <dc:type
           rdf:resource="http://purl.org/dc/dcmitype/StillImage" />
        <dc:title></dc:title>
      </cc:Work>
    </rdf:RDF>
  </metadata>
  <g
     inkscape:label="Layer 1"
     inkscape:groupmode="layer"
     id="layer1">
    <path
       style="fill:url(#linearGradient5218);fill-opacity:1"
       d="m 121.91498,756.23958 c -0.25426,-0.49963 -1.13166,-2.68978 -1.94977,-4.86701 -0.81812,-2.17722 -1.99951,-5.19401 -2.62526,-6.70403 -0.62575,-1.51002 -3.57745,-9.03516 -6.55939,-16.72253 -6.44553,-16.61645 -18.112253,-46.14035 -27.122813,-68.63724 -3.5738,-8.92284 -7.84193,-19.59281 -9.48466,-23.71104 -22.42698,-56.22209 -74.39079986,-181.16149 -76.1548499,-183.10311 -0.74502,-0.82004 -1.11613,-0.84821 -4.06309,-0.30847 -4.5472201,0.83282 -13.0003701,0.33721 -16.5032101,-0.96759 -6.9147,-2.57571 -12.9587,-7.5997 -17.36177,-14.43166 -5.00281,-7.76256 -7.55113,-21.445 -5.71076,-30.66254 1.16796,-5.84994 5.56524,-13.50124 10.29889,-17.92016 2.45382,-2.29067 6.33959,-4.30755 11.59746,-6.01957 5.10405,-1.66195 13.9859301,-1.64854 18.6060001,0.0281 6.61165,2.39937 11.21008,5.92024 14.97548,11.4662 7.1071499,10.46793 9.4320199,21.16047 7.0691799,32.51285 -0.54288,2.60821 -1.09453,5.33317 -1.22591,6.05545 -0.20798,1.1435 0.18112,1.66262 3.01042,4.0162 17.22734,14.33066 41.77416,29.22685 64.35962,39.05647 9.2107,4.00869 11.51246,4.46109 22.898663,4.5007 8.4749,0.0295 9.92507,-0.0899 13.52688,-1.11366 6.93976,-1.9725 11.51768,-4.68266 16.15474,-9.56376 6.00164,-6.31746 9.23299,-13.38071 11.38407,-24.88391 0.54906,-2.93612 1.40672,-7.36008 1.90593,-9.83102 2.61279,-12.93263 3.54923,-23.78766 3.14361,-36.44014 -0.42491,-13.25415 -2.26146,-27.50491 -3.63609,-28.21432 -0.39157,-0.20208 -2.63418,-0.74767 -4.98359,-1.21242 -12.00185,-2.37419 -21.12613,-9.26751 -26.42587,-19.96449 -2.39468,-4.83347 -3.17886,-8.88272 -3.21336,-16.59266 -0.0538,-12.02423 3.16082,-20.13342 11.30642,-28.52177 2.93239,-3.01981 4.46249,-4.11929 8.80514,-6.32715 10.46586,-5.32093 18.58848,-5.58589 27.67484,-0.90276 3.04655,1.5702 4.63312,2.89507 9.14931,7.64018 5.25247,5.51871 5.5073,5.88525 6.59384,9.48441 4.33584,14.36237 3.51271,26.95985 -2.58363,39.54102 -0.90337,1.8643 -1.64249,3.91222 -1.64249,4.55093 0,2.33418 4.04803,11.53589 8.09064,18.3911 6.91867,11.73226 17.13902,22.79566 30.35415,32.858 1.95784,1.49074 5.07437,3.99585 6.92562,5.5669 7.98547,6.77681 17.15637,12.3935 24.30424,14.88506 1.64426,0.57314 5.09815,1.42051 7.67532,1.88303 3.99994,0.71787 5.26591,0.75273 8.64954,0.23821 16.25174,-2.47131 28.60675,-15.02711 39.64747,-40.29178 14.87776,-34.04507 24.24963,-66.68797 29.80969,-103.82941 1.61346,-10.77792 3.16463,-25.22893 2.83985,-26.45653 -0.14526,-0.5491 -1.98093,-2.23383 -4.07925,-3.74385 -15.08005,-10.85209 -20.81753,-27.43961 -15.53956,-44.9262 1.75711,-5.82152 3.63756,-8.93374 8.4451,-13.97704 7.93269,-8.32167 13.28136,-10.49149 25.82227,-10.4754 6.77261,0.009 10.45841,0.80234 15.47467,3.33211 7.80521,3.93627 15.17376,14.56806 16.64535,24.01686 0.73624,4.72749 0.53229,11.06866 -0.49428,15.36849 -2.02296,8.47284 -6.68589,15.90718 -15.19162,24.22071 l -4.90856,4.79764 5.76084,21.15971 c 9.43635,34.6599 21.20169,73.82838 26.29833,87.55063 4.25674,11.46088 10.52889,24.38739 15.50155,31.94751 8.89608,13.52506 16.68443,20.35255 27.12698,23.78034 4.87191,1.59919 13.6283,1.60437 19.16924,0.0113 8.41424,-2.41913 18.72974,-8.78089 28.0442,-17.29538 7.40874,-6.77245 25.26288,-26.44277 29.90649,-32.94867 5.15378,-7.22068 11.14875,-17.57514 11.14875,-19.25603 0,-0.31482 -0.86354,-1.71307 -1.91897,-3.10722 -2.39952,-3.16956 -5.40956,-9.57143 -6.50324,-13.83144 -0.65309,-2.54387 -0.82941,-5.18536 -0.81631,-12.22991 l 0.0166,-8.98524 2.50712,-5.42668 c 2.17479,-4.70727 3.05736,-6.01253 6.65741,-9.84596 3.598,-3.83124 4.74632,-4.71251 8.62986,-6.62297 5.87972,-2.89246 8.6721,-3.56114 14.6841,-3.51641 12.60126,0.0938 23.16617,6.63961 31.18096,19.31921 6.43096,10.17399 6.94987,23.92133 1.26137,33.41859 -4.35983,7.27895 -13.848,14.11952 -25.49369,18.37979 -2.1886,0.80065 -3.37678,1.52556 -3.62473,2.2115 -0.2029,0.56124 -0.60662,4.44662 -0.89714,8.63418 -1.16141,16.73914 -0.33266,32.12707 2.8444,52.81603 1.72189,11.21304 2.30398,13.57602 4.96578,20.15814 9.11056,22.52862 25.38486,31.20115 47.66755,25.40197 8.64377,-2.24958 15.86532,-5.5589 30.56561,-14.00679 17.80924,-10.23451 27.80712,-17.02188 38.95245,-26.44408 8.87757,-7.50505 11.35811,-10.09896 10.98534,-11.48753 -3.12267,-11.63239 -3.85658,-17.04837 -3.13634,-23.1445 1.47633,-12.49474 8.20417,-21.46351 21.3062,-28.40293 16.9927,-9.00005 35.39774,-1.43687 44.41594,18.25183 3.31323,7.2335 4.21303,11.73472 3.92564,19.63818 -0.25886,7.11898 -1.31899,11.59677 -4.37801,18.49128 -4.3707,9.85092 -15.06086,15.15054 -32.37422,16.04948 -3.44209,0.17871 -6.46095,0.45942 -6.70857,0.62379 -1.02927,0.68321 -27.5632,63.0162 -41.3505,97.13974 -3.43882,8.51102 -6.75722,16.71005 -7.37424,18.22007 -9.02707,22.09159 -38.31474,99.5059 -45.32432,119.80316 -0.71113,2.05911 -4.07762,11.60593 -7.48112,21.21515 -3.4035,9.60921 -6.98252,19.82992 -7.95333,22.71268 -5.2554,15.60556 -10.18241,29.62453 -10.54611,30.00705 -0.23518,0.24735 -4.70626,-0.42809 -10.36088,-1.56517 -47.7892,-9.60982 -98.0607,-15.57327 -151.25339,-17.94248 -5.93108,-0.26416 -26.92555,-0.75655 -46.65432,-1.0942 -28.53798,-0.4884 -39.96517,-0.4868 -55.90131,0.008 -31.25827,0.97025 -61.24626,3.11897 -84.81736,6.07746 -4.56829,0.57336 -9.90784,1.23962 -11.86568,1.48052 -11.54935,1.42117 -39.96985,6.29411 -56.48062,9.68409 -6.78404,1.39286 -19.28281,4.34995 -31.94987,7.55903 -7.00013,1.77339 -12.91954,3.22435 -13.15424,3.22435 -0.23466,0 -0.63472,-0.40882 -0.88898,-0.90845 z"
       id="path2996"
       inkscape:connector-curvature="0"
       inkscape:transform-center-y="-22.857147" />
  </g>
</svg>
