<?xml version="1.0" encoding="UTF-8" standalone="no"?>
<!-- Created with Inkscape (http://www.inkscape.org/) -->

<svg
   xmlns:dc="http://purl.org/dc/elements/1.1/"
   xmlns:cc="http://creativecommons.org/ns#"
   xmlns:rdf="http://www.w3.org/1999/02/22-rdf-syntax-ns#"
   xmlns:svg="http://www.w3.org/2000/svg"
   xmlns="http://www.w3.org/2000/svg"
   xmlns:xlink="http://www.w3.org/1999/xlink"
   xmlns:sodipodi="http://sodipodi.sourceforge.net/DTD/sodipodi-0.dtd"
   xmlns:inkscape="http://www.inkscape.org/namespaces/inkscape"
   width="48"
   height="48"
   id="svg2"
   sodipodi:version="0.32"
   inkscape:version="0.48.5 r10040"
   version="1.0"
   sodipodi:docname="Gnome-mail-mark-important.svg"
   inkscape:output_extension="org.inkscape.output.svg.inkscape">
  <defs
     id="defs4">
    <linearGradient
       id="linearGradient12604">
      <stop
         style="stop-color:#cc0000;stop-opacity:1;"
         offset="0"
         id="stop12606" />
      <stop
         style="stop-color:#ef2929;stop-opacity:1"
         offset="1"
         id="stop12608" />
    </linearGradient>
    <linearGradient
       inkscape:collect="always"
       id="linearGradient6934">
      <stop
         style="stop-color:#babdb6;stop-opacity:1"
         offset="0"
         id="stop6936" />
      <stop
         style="stop-color:#babdb6;stop-opacity:0"
         offset="1"
         id="stop6938" />
    </linearGradient>
    <linearGradient
       inkscape:collect="always"
       id="linearGradient5060">
      <stop
         style="stop-color:black;stop-opacity:1;"
         offset="0"
         id="stop5062" />
      <stop
         style="stop-color:black;stop-opacity:0;"
         offset="1"
         id="stop5064" />
    </linearGradient>
    <linearGradient
       id="linearGradient5048">
      <stop
         style="stop-color:black;stop-opacity:0;"
         offset="0"
         id="stop5050" />
      <stop
         id="stop5056"
         offset="0.5"
         style="stop-color:black;stop-opacity:1;" />
      <stop
         style="stop-color:black;stop-opacity:0;"
         offset="1"
         id="stop5052" />
    </linearGradient>
    <linearGradient
       id="linearGradient6945"
       inkscape:collect="always">
      <stop
         id="stop6947"
         offset="0"
         style="stop-color:#ffffff;stop-opacity:1" />
      <stop
         id="stop6949"
         offset="1"
         style="stop-color:#d3d7cf;stop-opacity:1" />
    </linearGradient>
    <linearGradient
       id="linearGradient7063"
       inkscape:collect="always">
      <stop
         id="stop7065"
         offset="0"
         style="stop-color:#000000;stop-opacity:1;" />
      <stop
         id="stop7067"
         offset="1"
         style="stop-color:#000000;stop-opacity:0;" />
    </linearGradient>
    <linearGradient
       id="linearGradient2810"
       inkscape:collect="always">
      <stop
         id="stop2812"
         offset="0"
         style="stop-color:#f56767;stop-opacity:1;" />
      <stop
         id="stop2814"
         offset="1"
         style="stop-color:#f56767;stop-opacity:0;" />
    </linearGradient>
    <linearGradient
       inkscape:collect="always"
       xlink:href="#linearGradient5048"
       id="linearGradient9753"
       gradientUnits="userSpaceOnUse"
       gradientTransform="matrix(2.774389,0,0,1.969706,-1892.179,-872.8854)"
       x1="302.85715"
       y1="366.64789"
       x2="302.85715"
       y2="609.50507" />
    <radialGradient
       inkscape:collect="always"
       xlink:href="#linearGradient5060"
       id="radialGradient9755"
       gradientUnits="userSpaceOnUse"
       gradientTransform="matrix(2.774389,0,0,1.969706,-1891.633,-872.8854)"
       cx="605.71429"
       cy="486.64789"
       fx="605.71429"
       fy="486.64789"
       r="117.14286" />
    <radialGradient
       inkscape:collect="always"
       xlink:href="#linearGradient5060"
       id="radialGradient9757"
       gradientUnits="userSpaceOnUse"
       gradientTransform="matrix(-2.774389,0,0,1.969706,112.7623,-872.8854)"
       cx="605.71429"
       cy="486.64789"
       fx="605.71429"
       fy="486.64789"
       r="117.14286" />
    <radialGradient
       inkscape:collect="always"
       xlink:href="#linearGradient6945"
       id="radialGradient9759"
       gradientUnits="userSpaceOnUse"
       gradientTransform="matrix(2.0135589,0,0,1.7460565,-12.669486,-9.185985)"
       cx="12.5"
       cy="15.927882"
       fx="12.5"
       fy="15.927882"
       r="18.5" />
    <linearGradient
       inkscape:collect="always"
       xlink:href="#linearGradient7063"
       id="linearGradient9761"
       gradientUnits="userSpaceOnUse"
       x1="12.875"
       y1="35.314098"
       x2="12.875"
       y2="15.75" />
    <radialGradient
       inkscape:collect="always"
       xlink:href="#linearGradient6945"
       id="radialGradient9763"
       gradientUnits="userSpaceOnUse"
       gradientTransform="matrix(2.6083242,0,0,2.218814,-74.941381,-118.61799)"
       cx="13.107393"
       cy="61.48016"
       fx="13.107393"
       fy="61.48016"
       r="18.5" />
    <linearGradient
       inkscape:collect="always"
       xlink:href="#linearGradient6934"
       id="linearGradient9765"
       gradientUnits="userSpaceOnUse"
       gradientTransform="translate(1,-42)"
       x1="14.125"
       y1="79.81311"
       x2="14.125"
       y2="75.499176" />
    <linearGradient
       inkscape:collect="always"
       xlink:href="#linearGradient12604"
       id="linearGradient9767"
       gradientUnits="userSpaceOnUse"
       gradientTransform="matrix(1,0,0,-1,-0.0914,-2)"
       x1="41.9664"
       y1="26.875"
       x2="41.9664"
       y2="38.378162" />
    <linearGradient
       inkscape:collect="always"
       xlink:href="#linearGradient2810"
       id="linearGradient9769"
       gradientUnits="userSpaceOnUse"
       x1="39.107632"
       y1="30.991781"
       x2="42.51741"
       y2="41.866783" />
  </defs>
  <sodipodi:namedview
     id="base"
     pagecolor="#ffffff"
     bordercolor="#666666"
     borderopacity="0.37647059"
     inkscape:pageopacity="0"
     inkscape:pageshadow="2"
     inkscape:zoom="10.024516"
     inkscape:cx="37.401662"
     inkscape:cy="15.961219"
     inkscape:document-units="px"
     inkscape:current-layer="layer1"
     width="48px"
     height="48px"
     inkscape:showpageshadow="false"
     inkscape:window-width="1600"
     inkscape:window-height="857"
     inkscape:window-x="0"
     inkscape:window-y="25"
     borderlayer="true"
     showgrid="false"
     inkscape:grid-points="true"
     showborder="true"
     showguides="true"
     inkscape:guide-bbox="false"
     inkscape:object-paths="false"
     inkscape:grid-bbox="true"
     inkscape:window-maximized="1">
    <inkscape:grid
       id="GridFromPre046Settings"
       type="xygrid"
       originx="0px"
       originy="0px"
       spacingx="0.5px"
       spacingy="0.5px"
       color="#3f3fff"
       empcolor="#3f3fff"
       opacity="0.15"
       empopacity="0.38"
       empspacing="2" />
  </sodipodi:namedview>
  <metadata
     id="metadata7">
    <rdf:RDF>
      <cc:Work
         rdf:about="">
        <dc:format>image/svg+xml</dc:format>
        <dc:type
           rdf:resource="http://purl.org/dc/dcmitype/StillImage" />
        <dc:creator>
          <cc:Agent>
            <dc:title>Lapo Calamandrei</dc:title>
          </cc:Agent>
        </dc:creator>
        <cc:license
           rdf:resource="http://creativecommons.org/licenses/GPL/2.0/" />
        <dc:title>Mail stuff</dc:title>
      </cc:Work>
      <cc:License
         rdf:about="http://creativecommons.org/licenses/GPL/2.0/">
        <cc:permits
           rdf:resource="http://web.resource.org/cc/Reproduction" />
        <cc:permits
           rdf:resource="http://web.resource.org/cc/Distribution" />
        <cc:requires
           rdf:resource="http://web.resource.org/cc/Notice" />
        <cc:permits
           rdf:resource="http://web.resource.org/cc/DerivativeWorks" />
        <cc:requires
           rdf:resource="http://web.resource.org/cc/ShareAlike" />
        <cc:requires
           rdf:resource="http://web.resource.org/cc/SourceCode" />
      </cc:License>
    </rdf:RDF>
  </metadata>
  <g
     inkscape:label="Livello 1"
     inkscape:groupmode="layer"
     id="layer1">
    <g
       id="g10466"
       inkscape:label="Livello 1"
       transform="translate(0,-1)">
      <g
         transform="matrix(0.02216275,0,0,0.01069518,44.21234,36.053672)"
         id="g10468"
         style="opacity:0.7;display:inline">
        <rect
           style="opacity:0.39195981;color:#000000;fill:url(#linearGradient9753);fill-opacity:1;fill-rule:nonzero;stroke:none;stroke-width:1;marker:none;visibility:visible;display:inline;overflow:visible"
           id="rect10470"
           width="1339.6335"
           height="478.35718"
           x="-1559.2523"
           y="-150.69685" />
        <path
           inkscape:connector-curvature="0"
           style="opacity:0.40206185;color:#000000;fill:url(#radialGradient9755);fill-opacity:1;fill-rule:nonzero;stroke:none;stroke-width:1;marker:none;visibility:visible;display:inline;overflow:visible"
           d="m -219.61876,-150.68038 c 0,0 0,478.33079 0,478.33079 142.874166,0.90045 345.40022,-107.16966 345.40014,-239.196175 0,-132.026537 -159.436816,-239.134595 -345.40014,-239.134615 z"
           id="path10472"
           sodipodi:nodetypes="cccc" />
        <path
           inkscape:connector-curvature="0"
           sodipodi:nodetypes="cccc"
           id="path10474"
           d="m -1559.2523,-150.68038 c 0,0 0,478.33079 0,478.33079 -142.8742,0.90045 -345.4002,-107.16966 -345.4002,-239.196175 0,-132.026537 159.4368,-239.134595 345.4002,-239.134615 z"
           style="opacity:0.40206185;color:#000000;fill:url(#radialGradient9757);fill-opacity:1;fill-rule:nonzero;stroke:none;stroke-width:1;marker:none;visibility:visible;display:inline;overflow:visible" />
      </g>
      <rect
         ry="1.5340841"
         rx="1.5340841"
         y="12.499999"
         x="6.5"
         height="25"
         width="36"
         id="rect10476"
         style="fill:url(#radialGradient9759);fill-opacity:1;fill-rule:evenodd;stroke:#888a85;stroke-width:1;stroke-linecap:butt;stroke-linejoin:miter;stroke-miterlimit:4;stroke-opacity:0.99236642;stroke-dasharray:none;stroke-dashoffset:0.69999992" />
      <path
         inkscape:connector-curvature="0"
         sodipodi:nodetypes="cccccssscccccc"
         id="path10478"
         d="m 7.90625,12.9375 c -0.549278,0 -0.96875,0.41947 -0.96875,0.96875 l 0,1.40625 9.09375,11.59375 1.125,-1.25 c 0.469373,-0.469374 0.93435,-1.084984 1.96875,-1.5 C 20.1594,23.741234 21.70864,23.5 24.5,23.5 c 2.780132,-1e-6 4.338454,0.241631 5.375,0.65625 1.036546,0.414619 1.498047,1.029297 1.96875,1.5 l 1.125,1.25 9.09375,-11.59375 0,-1.40625 c 0,-0.549278 -0.41947,-0.96875 -0.96875,-0.96875 l -33.1875,0 z"
         style="opacity:0.23134329;fill:url(#linearGradient9761);fill-opacity:1;fill-rule:evenodd;stroke:none" />
      <path
         inkscape:connector-curvature="0"
         sodipodi:nodetypes="ccssscccccc"
         id="path10480"
         d="M 7,37 17.15625,25.65625 c 0.469373,-0.469374 0.93435,-1.084984 1.96875,-1.5 C 20.1594,23.741234 21.70864,23.5 24.5,23.5 c 2.780132,-1e-6 4.338454,0.241631 5.375,0.65625 1.036546,0.414619 1.498047,1.029297 1.96875,1.5 L 42,37 31.84375,26.65625 C 29.799743,24.686656 27.325503,24.384093 24.5,24.5 c -2.67085,0.04954 -5.464303,-3.3e-4 -7.34375,2.15625 L 7,37 z"
         style="fill:#888a85;fill-opacity:1;fill-rule:evenodd;stroke:none" />
      <path
         inkscape:connector-curvature="0"
         sodipodi:nodetypes="ccccccccc"
         id="path10482"
         d="m 7,37.021499 10.15625,-9.34375 c 1.879447,-2.15658 4.6729,-2.10671 7.34375,-2.15625 2.825503,-0.115907 5.299743,0.186656 7.34375,2.15625 L 42,37.021499 31.84375,26.677749 C 29.799743,24.708155 27.325503,24.405592 24.5,24.521499 c -2.67085,0.04954 -5.464303,-3.3e-4 -7.34375,2.15625 L 7,37.021499 z"
         style="fill:#ffffff;fill-opacity:1;fill-rule:evenodd;stroke:none" />
      <path
         transform="translate(50,0)"
         d="m -42.09375,12.9375 c -0.549278,0 -0.96875,0.41947 -0.96875,0.96875 l 0,1.40625 10.875,10.875 c 0.527224,0.527225 0.810244,0.94182 1.65625,1.28125 0.846006,0.33943 2.296573,0.59375 5.03125,0.59375 2.723216,1e-6 4.181791,-0.253966 5.03125,-0.59375 0.849459,-0.339784 1.130208,-0.755208 1.65625,-1.28125 l 10.875,-10.875 0,-1.40625 c 0,-0.549278 -0.4194702,-0.96875 -0.96875,-0.96875 l -33.1875,0 z"
         id="path10484"
         style="fill:url(#radialGradient9763);fill-opacity:1;fill-rule:evenodd;stroke:none"
         inkscape:original="M -42.09375 12.5 C -42.877224 12.5 -43.5 13.122774 -43.5 13.90625 L -43.5 15.5 L -32.5 26.5 C -31.5 27.500002 -31.022703 28.5 -25.5 28.5 C -20 28.500002 -19.5 27.5 -18.5 26.5 L -7.5 15.5 L -7.5 13.90625 C -7.5 13.122776 -8.122774 12.5 -8.90625 12.5 L -42.09375 12.5 z "
         inkscape:radius="-0.44194174"
         sodipodi:type="inkscape:offset" />
      <path
         inkscape:connector-curvature="0"
         sodipodi:nodetypes="ccssscccccc"
         id="path10486"
         d="m 7,15.5 10.15625,11.34375 c 0.469373,0.469374 0.93435,1.084984 1.96875,1.5 C 20.1594,28.758766 21.70864,29 24.5,29 c 2.780132,1e-6 4.338454,-0.241631 5.375,-0.65625 1.036546,-0.414619 1.498047,-1.029297 1.96875,-1.5 L 42,15.5 31.84375,25.84375 C 29.799743,27.813344 27.325503,28.115907 24.5,28 21.82915,27.95046 19.035697,28.00033 17.15625,25.84375 L 7,15.5 z"
         style="fill:#888a85;fill-opacity:1;fill-rule:evenodd;stroke:none" />
      <path
         inkscape:connector-curvature="0"
         sodipodi:nodetypes="ccccccccc"
         id="path10488"
         d="m 7,15.5 10.15625,9.34375 C 19.035697,27.00033 21.82915,26.95046 24.5,27 c 2.825503,0.115907 5.299743,-0.186656 7.34375,-2.15625 L 42,15.5 31.84375,25.84375 C 29.799743,27.813344 27.325503,28.115907 24.5,28 21.82915,27.95046 19.035697,28.00033 17.15625,25.84375 L 7,15.5 z"
         style="fill:#ffffff;fill-opacity:1;fill-rule:evenodd;stroke:none" />
      <path
         transform="translate(1,-42)"
         d="M 6.90625,55.5 C 6.6497165,55.5 6.5,55.649715 6.5,55.90625 l 0,22.1875 c 0,0.256531 0.1497152,0.406249 0.40625,0.40625 l 33.1875,0 C 40.350281,78.5 40.5,78.350281 40.5,78.09375 l 0,-22.1875 C 40.5,55.649717 40.350284,55.5 40.09375,55.5 l -33.1875,0 z"
         id="path10490"
         style="opacity:0.7;fill:none;stroke:#ffffff;stroke-width:0.99999988;stroke-linecap:butt;stroke-linejoin:round;stroke-miterlimit:4;stroke-opacity:0.99236642;stroke-dasharray:none;stroke-dashoffset:0.69999992"
         inkscape:original="M 6.90625 54.5 C 6.1227756 54.5 5.5 55.122774 5.5 55.90625 L 5.5 78.09375 C 5.5 78.877224 6.1227756 79.499998 6.90625 79.5 L 40.09375 79.5 C 40.877224 79.5 41.5 78.877224 41.5 78.09375 L 41.5 55.90625 C 41.5 55.122776 40.877226 54.5 40.09375 54.5 L 6.90625 54.5 z "
         inkscape:radius="-0.99436891"
         sodipodi:type="inkscape:offset" />
      <path
         inkscape:connector-curvature="0"
         sodipodi:nodetypes="ccccccc"
         id="path10492"
         d="m 7,32.90625 0,3.1875 C 7,36.614757 7.385241,36.999999 7.90625,37 l 33.1875,0 C 41.61476,37 42,36.614757 42,36.09375 l 0,-3.1875 -35,0 z"
         style="opacity:0.55597014;fill:url(#linearGradient9765);fill-opacity:1;fill-rule:evenodd;stroke:none" />
    </g>
    <g
       id="g2229"
       transform="translate(-0.0914,-6)">
      <path
         inkscape:connector-curvature="0"
         style="fill:url(#linearGradient9767);fill-opacity:1;stroke:#a40000;stroke-width:0.99999994;stroke-linecap:round;stroke-linejoin:round;stroke-miterlimit:4;stroke-opacity:1"
         d="m 38.5,57.5 0.90625,15 5.125,0 0.8125,-15 -6.84375,0 z m 0.90625,16.9375 0,5.0625 5.09375,0 0,-5.0625 -5.09375,0 z"
         id="rect1336"
         transform="translate(0.0914,-34)" />
      <path
         inkscape:connector-curvature="0"
         sodipodi:nodetypes="ccccc"
         id="rect2213"
         d="m 39.607632,24.5 4.784778,0 -0.803729,12.983562 -3.088017,0 L 39.607632,24.5 z"
         style="fill:none;stroke:url(#linearGradient9769);stroke-width:1.00000012;stroke-linecap:round;stroke-linejoin:round;stroke-miterlimit:4;stroke-opacity:1" />
      <rect
         y="41.505306"
         x="40.504646"
         height="2.9893484"
         width="2.9864979"
         id="rect2215"
         style="fill:none;stroke:#ef2929;stroke-width:0.99999827;stroke-linecap:round;stroke-linejoin:round;stroke-miterlimit:4;stroke-opacity:1;stroke-dasharray:none" />
    </g>
  </g>
</svg>
